<svg width="40" height="38" viewBox="0 0 40 38" fill="none" xmlns="http://www.w3.org/2000/svg">
<path d="M4 30V34H36V30H4ZM4 8H8.4C8.23333 7.7 8.125 7.38333 8.075 7.05C8.025 6.71667 8 6.36667 8 6C8 4.33333 8.58333 2.91667 9.75 1.75C10.9167 0.583333 12.3333 0 14 0C15 0 15.925 0.258333 16.775 0.775C17.625 1.29167 18.3667 1.93333 19 2.7L20 4L21 2.7C21.6 1.9 22.3333 1.25 23.2 0.75C24.0667 0.25 25 0 26 0C27.6667 0 29.0833 0.583333 30.25 1.75C31.4167 2.91667 32 4.33333 32 6C32 6.36667 31.975 6.71667 31.925 7.05C31.875 7.38333 31.7667 7.7 31.6 8H36C37.1 8 38.0417 8.39167 38.825 9.175C39.6083 9.95833 40 10.9 40 12V34C40 35.1 39.6083 36.0417 38.825 36.825C38.0417 37.6083 37.1 38 36 38H4C2.9 38 1.95833 37.6083 1.175 36.825C0.391667 36.0417 0 35.1 0 34V12C0 10.9 0.391667 9.95833 1.175 9.175C1.95833 8.39167 2.9 8 4 8ZM4 24H36V12H25.8L30 17.7L26.8 20L20 10.8L13.2 20L10 17.7L14.1 12H4V24ZM14 8C14.5667 8 15.0417 7.80833 15.425 7.425C15.8083 7.04167 16 6.56667 16 6C16 5.43333 15.8083 4.95833 15.425 4.575C15.0417 4.19167 14.5667 4 14 4C13.4333 4 12.9583 4.19167 12.575 4.575C12.1917 4.95833 12 5.43333 12 6C12 6.56667 12.1917 7.04167 12.575 7.425C12.9583 7.80833 13.4333 8 14 8ZM26 8C26.5667 8 27.0417 7.80833 27.425 7.425C27.8083 7.04167 28 6.56667 28 6C28 5.43333 27.8083 4.95833 27.425 4.575C27.0417 4.19167 26.5667 4 26 4C25.4333 4 24.9583 4.19167 24.575 4.575C24.1917 4.95833 24 5.43333 24 6C24 6.56667 24.1917 7.04167 24.575 7.425C24.9583 7.80833 25.4333 8 26 8Z" fill="#6A5800"/>
</svg>
